{
  "accessors": [
    {
      "bufferView": 2,
      "componentType": 5126,
      "count": 1364,
      "max": [
        4580.95458984375,
        3418.997802734375,
        717.8560791015625
      ],
      "min": [
        -5132.1337890625,
        -3436.036376953125,
        -720.8239135742188
      ],
      "type": "VEC3"
    },
    {
      "bufferView": 2,
      "byteOffset": 16368,
      "componentType": 5126,
      "count": 1364,
      "max": [
        1.0,
        0.9994228482246399,
        0.9998334646224976
      ],
      "min": [
        -0.9999992847442627,
        -0.9997551441192627,
        -0.9998217821121216
      ],
      "type": "VEC3"
    },
    {
      "bufferView": 3,
      "componentType": 5126,
      "count": 1364,
      "max": [
        0.9999997019767761,
        0.9974470138549805,
        0.9993511438369751,
        1.0
      ],
      "min": [
        -0.8740073442459106,
        -0.996489942073822,
        -0.9982673525810242,
        -1.0
      ],
      "type": "VEC4"
    },
    {
      "bufferView": 1,
      "componentType": 5126,
      "count": 1364,
      "max": [
        0.9952200055122375,
        0.9978229999542236
      ],
      "min": [
        0.001538999960757792,
        0.29676198959350586
      ],
      "type": "VEC2"
    },
    {
      "bufferView": 1,
      "byteOffset": 10912,
      "componentType": 5126,
      "count": 1364,
      "max": [
        0.9952200055122375,
        0.9978229999542236
      ],
      "min": [
        0.001538999960757792,
        0.29676198959350586
      ],
      "type": "VEC2"
    },
    {
      "bufferView": 0,
      "componentType": 5125,
      "count": 8016,
      "type": "SCALAR"
    }
  ],
  "asset": {
    "extras": {
      "author": "polyplant3d (https://sketchfab.com/polyplant3d)",
      "license": "CC-BY-4.0 (http://creativecommons.org/licenses/by/4.0/)",
      "source": "https://sketchfab.com/3d-models/coral-fish-ea8d002da75a4dd09658b962722279c5",
      "title": "coral fish"
    },
    "generator": "Sketchfab-12.68.0",
    "version": "2.0"
  },
  "bufferViews": [
    {
      "buffer": 0,
      "byteLength": 32064,
      "name": "floatBufferViews",
      "target": 34963
    },
    {
      "buffer": 0,
      "byteLength": 21824,
      "byteOffset": 32064,
      "byteStride": 8,
      "name": "floatBufferViews",
      "target": 34962
    },
    {
      "buffer": 0,
      "byteLength": 32736,
      "byteOffset": 53888,
      "byteStride": 12,
      "name": "floatBufferViews",
      "target": 34962
    },
    {
      "buffer": 0,
      "byteLength": 21824,
      "byteOffset": 86624,
      "byteStride": 16,
      "name": "floatBufferViews",
      "target": 34962
    }
  ],
  "buffers": [
    {
      "byteLength": 108448,
      "uri": "scene.bin"
    }
  ],
  "images": [
    {
      "uri": "textures/texture_baseColor.png"
    },
    {
      "uri": "textures/texture_normal.png"
    }
  ],
  "materials": [
    {
      "doubleSided": true,
      "name": "texture",
      "normalTexture": {
        "index": 1
      },
      "pbrMetallicRoughness": {
        "baseColorTexture": {
          "index": 0
        },
        "metallicFactor": 0.0,
        "roughnessFactor": 0.6
      }
    }
  ],
  "meshes": [
    {
      "name": "model_texture_0",
      "primitives": [
        {
          "attributes": {
            "NORMAL": 1,
            "POSITION": 0,
            "TANGENT": 2,
            "TEXCOORD_0": 3,
            "TEXCOORD_1": 4
          },
          "indices": 5,
          "material": 0,
          "mode": 4
        }
      ]
    }
  ],
  "nodes": [
    {
      "children": [
        1
      ],
      "matrix": [
        1.0,
        0.0,
        0.0,
        0.0,
        0.0,
        2.220446049250313e-16,
        -1.0,
        0.0,
        0.0,
        1.0,
        2.220446049250313e-16,
        0.0,
        0.0,
        0.0,
        0.0,
        1.0
      ],
      "name": "Sketchfab_model"
    },
    {
      "children": [
        2
      ],
      "matrix": [
        1.0,
        0.0,
        0.0,
        0.0,
        0.0,
        0.0,
        1.0,
        0.0,
        0.0,
        -1.0,
        0.0,
        0.0,
        0.0,
        0.0,
        0.0,
        1.0
      ],
      "name": "88c54232cb7f4a5e862beedfb7651598.fbx"
    },
    {
      "children": [
        3
      ],
      "name": "RootNode"
    },
    {
      "children": [
        4
      ],
      "matrix": [
        1.0,
        0.0,
        0.0,
        0.0,
        0.0,
        1.0,
        0.0,
        0.0,
        0.0,
        0.0,
        1.0,
        0.0,
        -8504.1767578125,
        4993.43310546875,
        27360.89453125,
        1.0
      ],
      "name": "model"
    },
    {
      "mesh": 0,
      "name": "model_texture_0"
    }
  ],
  "samplers": [
    {
      "magFilter": 9729,
      "minFilter": 9987,
      "wrapS": 10497,
      "wrapT": 10497
    }
  ],
  "scene": 0,
  "scenes": [
    {
      "name": "Sketchfab_Scene",
      "nodes": [
        0
      ]
    }
  ],
  "textures": [
    {
      "sampler": 0,
      "source": 0
    },
    {
      "sampler": 0,
      "source": 1
    }
  ]
}
